<svg version="1.2" baseProfile="tiny-ps" xmlns="http://www.w3.org/2000/svg" viewBox="0 0 100 102" width="100" height="102">
	<title>icons-svg</title>
	<defs>
		<filter x="-50%" y="-50%" width="200%" height="200%" id="f1"> <feGaussianBlur stdDeviation="9.5" /> </filter>
		<radialGradient id="grd1" gradientUnits="userSpaceOnUse"  cx="273.9" cy="48.8" r="58.8">
			<stop offset="0" stop-color="#857c63"  />
			<stop offset="1" stop-color="#221f19"  />
		</radialGradient>
		<linearGradient id="grd2" gradientUnits="userSpaceOnUse"  x1="299.1" y1="61.8" x2="275.7" y2="66.4">
			<stop offset="0" stop-color="#000000"  />
			<stop offset="1" stop-color="#000000" stop-opacity="0" />
		</linearGradient>
		<linearGradient id="grd3" gradientUnits="userSpaceOnUse"  x1="270.5" y1="42" x2="322.4" y2="101">
			<stop offset="0" stop-color="#ffffff"  />
			<stop offset="1" stop-color="#ffffff" stop-opacity="0" />
		</linearGradient>
		<radialGradient id="grd4" gradientUnits="userSpaceOnUse"  cx="267.8" cy="40.9" r="12.5">
			<stop offset="0" stop-color="#ffffff"  />
			<stop offset="1" stop-color="#b9b9b0"  />
		</radialGradient>
		<radialGradient id="grd5" gradientUnits="userSpaceOnUse"  cx="248.4" cy="51" r="9.4">
			<stop offset="0" stop-color="#5b676b"  />
			<stop offset="1" stop-color="#141718"  />
		</radialGradient>
		<linearGradient id="grd6" gradientUnits="userSpaceOnUse"  x1="249.6" y1="52.5" x2="254.1" y2="59.1">
			<stop offset="0" stop-color="#ffffff"  />
			<stop offset="1" stop-color="#242424"  />
		</linearGradient>
		<radialGradient id="grd7" gradientUnits="userSpaceOnUse"  cx="285.5" cy="40.7" r="14.7">
			<stop offset="0" stop-color="#ffffff"  />
			<stop offset="1" stop-color="#b9b9b0"  />
		</radialGradient>
		<linearGradient id="grd8" gradientUnits="userSpaceOnUse"  x1="311.5" y1="69.4" x2="307.1" y2="79">
			<stop offset="0" stop-color="#6e3d09"  />
			<stop offset=".2" stop-color="#ea8113"  />
			<stop offset=".6" stop-color="#5c3307"  />
			<stop offset="1" stop-color="#e07c12"  />
		</linearGradient>
		<linearGradient id="grd9" gradientUnits="userSpaceOnUse"  x1="320.9" y1="79.8" x2="322.8" y2="75.9">
			<stop offset="0" stop-color="#bdbdbd"  />
			<stop offset=".3" stop-color="#e2e2e2"  />
			<stop offset=".7" stop-color="#a3a3a3"  />
			<stop offset="1" stop-color="#dddddd"  />
		</linearGradient>
		<radialGradient id="grd10" gradientUnits="userSpaceOnUse"  cx="325.7" cy="82" r="10.2">
			<stop offset="0" stop-color="#696969"  />
			<stop offset="1" stop-color="#000000"  />
		</radialGradient>
		<linearGradient id="grd11" gradientUnits="userSpaceOnUse"  x1="331.7" y1="80" x2="334.2" y2="84.6">
			<stop offset="0" stop-color="#ffffff"  />
			<stop offset="1" stop-color="#ffffff" stop-opacity="0" />
		</linearGradient>
		<linearGradient id="grd12" gradientUnits="userSpaceOnUse"  x1="294.2" y1="66.2" x2="290.3" y2="67.1">
			<stop offset="0" stop-color="#000000"  />
			<stop offset="1" stop-color="#000000" stop-opacity="0" />
		</linearGradient>
	</defs>
	<style>
		tspan { white-space:pre }
		.s0 { fill: #000211 } 
		.s1 { fill: #00ccff } 
		.s2 { fill: #000000 } 
		.s3 { fill: #ff9900 } 
		.s4 { fill: #ff00c4 } 
		.s5 { fill: #fdb300 } 
		.s6 { fill: #ea6c00 } 
		.s7 { fill: #fdad00 } 
		.s8 { fill: #fdd231 } 
		.s9 { fill: #feeeb7 } 
		.s10 { fill: #ffffff } 
		.s11 { fill: #ea4c3a } 
		.s12 { fill: none;stroke: #ea4c3a;stroke-linejoin:round;stroke-width: 3.5 } 
		.s13 { filter: url(#f1);fill: #000000 } 
		.s14 { fill: url(#grd1);stroke: #2e3436;stroke-width: 2.1 } 
		.s15 { fill: url(#grd2) } 
		.s16 { opacity: .2;fill: none;stroke: url(#grd3);stroke-width: 2.1 } 
		.s17 { fill: url(#grd4);stroke: #888a85;stroke-width: 2.1 } 
		.s18 { fill: url(#grd5);stroke: #000000;stroke-width: 2.1 } 
		.s19 { fill: #2e3436;stroke: #000000;stroke-width: 2.1 } 
		.s20 { opacity: .3;fill: none;stroke: url(#grd6);stroke-width: 2.1 } 
		.s21 { fill: url(#grd7);stroke: #888a85;stroke-width: 2.1 } 
		.s22 { fill: url(#grd8);stroke: #673907;stroke-linecap:round;stroke-width: 2.1 } 
		.s23 { fill: url(#grd9);stroke: #888a85;stroke-linecap:round;stroke-width: 2.1 } 
		.s24 { fill: none;stroke: #ffffff;stroke-linecap:round;stroke-linejoin:round;stroke-width: 2.1 } 
		.s25 { fill: url(#grd10) } 
		.s26 { opacity: .5;fill: #ffffff } 
		.s27 { opacity: .4;fill: url(#grd11) } 
		.s28 { fill: url(#grd12) } 
		.s29 { fill: #706d6d } 
		.s30 { fill: #bfbfbf } 
		.s31 { fill: #414141 } 
		.s32 { fill: #e8e6e6 } 
		.s33 { fill: #1c1c1c } 
		.s34 { fill: #686868 } 
		.s35 { fill: #da0100 } 
	</style>
	<g id="Layer">
		<g id="Layer">
			<path id="Layer" class="s0" d="m-319.17 15.67h44c4.42 0 8 3.58 8 8v52c0 4.42-3.58 8-8 8h-44c-4.42 0-8-3.58-8-8v-52c0-4.42 3.58-8 8-8z" />
			<path id="Layer" fill-rule="evenodd" class="s1" d="m-319.17 15.67h44c4.42 0 8 3.58 8 8v52c0 4.42-3.58 8-8 8h-44c-4.42 0-8-3.58-8-8v-10.66h-8.61c-3.44 0-6.24-2.77-6.24-6.18v-16.63c0-3.42 2.79-6.18 6.24-6.18h8.61v-12.34c0-4.42 3.58-8 8-8v-0.01zm-1.82 62.34h48v-56h-48v14h25.75c3.44 0 6.24 2.77 6.24 6.18v16.63c0 3.42-2.79 6.18-6.24 6.18h-25.75v13.01z" />
			<path id="Layer" fill-rule="evenodd" class="s2" d="m-324.71 51.07c-1.05 0.89-2.55 1.34-4.5 1.34h-1.43v5.59h-3.33v-15.71h5.02c1.91 0 3.35 0.41 4.34 1.24c0.99 0.81 1.49 2.03 1.49 3.66c0 1.69-0.53 2.99-1.59 3.88zm-5.93-6.05v4.66h1.1c1.03 0 1.79-0.2 2.3-0.6c0.51-0.41 0.76-1 0.76-1.77c0-0.78-0.21-1.36-0.64-1.73c-0.42-0.37-1.09-0.56-2-0.56h-1.52zm19.76 8.62c0 1.42-0.51 2.54-1.54 3.35c-1.02 0.81-2.44 1.22-4.25 1.22c-1.67 0-3.16-0.32-4.45-0.95v-3.09c1.06 0.47 1.96 0.81 2.69 1c0.74 0.19 1.41 0.29 2.02 0.29c0.73 0 1.29-0.14 1.68-0.42c0.39-0.28 0.59-0.7 0.59-1.25c0-0.31-0.09-0.58-0.26-0.82c-0.17-0.25-0.43-0.48-0.76-0.7c-0.33-0.22-1-0.57-2.03-1.06c-0.96-0.45-1.68-0.89-2.16-1.3c-0.48-0.41-0.86-0.9-1.15-1.45c-0.29-0.55-0.43-1.2-0.43-1.93c0-1.39 0.47-2.48 1.41-3.28c0.95-0.79 2.25-1.19 3.91-1.19c0.81 0 1.59 0.1 2.33 0.29c0.75 0.19 1.52 0.47 2.33 0.82l-1.07 2.59c-0.84-0.35-1.53-0.59-2.08-0.72c-0.55-0.13-1.08-0.2-1.61-0.2c-0.63 0-1.12 0.15-1.45 0.44c-0.33 0.29-0.5 0.68-0.5 1.15c0 0.29 0.07 0.55 0.2 0.77c0.13 0.21 0.35 0.42 0.64 0.63c0.3 0.2 1.01 0.57 2.12 1.1c1.47 0.7 2.47 1.41 3.02 2.12c0.55 0.7 0.82 1.56 0.82 2.59l-0.02 0zm15.88-3.64c0 2.59-0.74 4.57-2.21 5.94c-1.47 1.37-3.59 2.06-6.37 2.06h-4.45v-15.71h4.93c2.57 0 4.56 0.68 5.97 2.03c1.42 1.35 2.13 3.24 2.13 5.67v0.01zm-7.93-4.97h-1.77v10.23h1.43c3.21 0 4.81-1.72 4.81-5.17c0-3.37-1.49-5.06-4.47-5.06z" />
		</g>
		<g id="Layer">
			<path id="Layer" class="s0" d="m-204.17 15.67h44c4.42 0 8 3.58 8 8v52c0 4.42-3.58 8-8 8h-44c-4.42 0-8-3.58-8-8v-52c0-4.42 3.58-8 8-8z" />
			<path id="Layer" fill-rule="evenodd" class="s3" d="m-204.17 15.67h44c4.42 0 8 3.58 8 8v52c0 4.42-3.58 8-8 8h-44c-4.42 0-8-3.58-8-8v-10.66h-8.61c-3.44 0-6.24-2.77-6.24-6.18v-16.63c0-3.42 2.79-6.18 6.24-6.18h8.61v-12.34c0-4.42 3.58-8 8-8l0-0.01zm-1.82 62.34h48v-56h-48v14h25.75c3.44 0 6.24 2.77 6.24 6.18v16.63c0 3.42-2.79 6.18-6.24 6.18h-25.75v13.01z" />
			<path id="Layer" fill-rule="evenodd" class="s2" d="m-199.48 58l-1.14-3.74h-5.73l-1.14 3.74h-3.59l5.54-15.77h4.07l5.56 15.77h-3.57zm-6.02-6.53h4.09c-1.05-3.39-1.65-5.3-1.78-5.75c-0.13-0.45-0.22-0.8-0.28-1.05c-0.23 0.92-0.91 3.19-2.03 6.8zm14.92 6.53h-3.33v-15.71h3.33v15.71z" />
		</g>
		<g id="Layer">
			<path id="Layer" class="s0" d="m-86.17 15.67h44c4.42 0 8 3.58 8 8v52c0 4.42-3.58 8-8 8h-44c-4.42 0-8-3.58-8-8v-52c0-4.42 3.58-8 8-8z" />
			<path id="Layer" fill-rule="evenodd" class="s4" d="m-86.17 15.67h44c4.42 0 8 3.58 8 8v52c0 4.42-3.58 8-8 8h-44c-4.42 0-8-3.58-8-8v-10.66h-8.61c-3.44 0-6.24-2.77-6.24-6.18v-16.63c0-3.42 2.79-6.18 6.24-6.18h8.61v-12.34c0-4.42 3.58-8 8-8v-0.01zm-1.82 62.34h48v-56h-48v14h25.75c3.44 0 6.24 2.77 6.24 6.18v16.63c0 3.42-2.79 6.18-6.24 6.18h-25.75v13.01z" />
			<path id="Layer" fill-rule="evenodd" class="s2" d="m-87.95 50.08l5.31 7.92h-3.8l-3.65-5.94l-3.65 5.94h-3.57l5.21-8.1l-4.88-7.61h3.67l3.38 5.65l3.32-5.65h3.59l-4.93 7.79zm20.31-0.09c0 2.59-0.74 4.57-2.21 5.94c-1.47 1.37-3.59 2.06-6.37 2.06h-4.45v-15.71h4.93c2.57 0 4.56 0.68 5.97 2.03c1.42 1.35 2.13 3.24 2.13 5.67l0 0.01zm-3.46 0.09c0-3.37-1.49-5.06-4.47-5.06h-1.77v10.23h1.43c3.21 0 4.81-1.72 4.81-5.17z" />
		</g>
		<g id="Layer">
			<path id="Layer" fill-rule="evenodd" class="s5" d="m29.74 21.6l21.44-2.27l21.44 2.27l16.6 22.28l-38.03 44.29l-38.03-44.29l16.6-22.28h-0.02z" />
			<g id="Layer">
				<path id="Layer" class="s6" d="m28.55 43.88l22.63 44.29l-38.03-44.29h15.41h-0.01z" />
				<path id="Layer" class="s6" d="m89.21 43.88l-38.03 44.29l22.63-44.29h15.41h-0.01z" />
				<path id="Layer" class="s7" d="m28.55 43.88h45.26l-22.63 44.29l-22.63-44.29z" />
			</g>
			<g id="Layer">
				<path id="Layer" class="s8" d="m28.55 43.88l1.19-22.28l21.44-2.27l-22.63 24.55z" />
				<path id="Layer" class="s8" d="m51.17 19.34l21.44 2.27l1.19 22.28l-22.63-24.55z" />
				<path id="Layer" class="s7" d="m73.8 43.88l-1.19-22.28l16.6 22.28h-15.41z" />
				<path id="Layer" class="s7" d="m13.14 43.88l16.6-22.28l-1.19 22.28h-15.41z" />
				<path id="Layer" class="s9" d="m73.8 43.88h-45.26l22.63-24.55l22.63 24.55z" />
			</g>
		</g>
		<g id="Layer">
			<path id="Layer" fill-rule="evenodd" class="s10" d="m208.98 87.9h-69.96v-66.82h69.96v66.82v0z" />
			<path id="Layer" fill-rule="evenodd" class="s11" d="m139.02 87.9v-66.82h69.96v66.82h-69.96zm6.72-6.72h56.51v-53.37h-56.51v53.37z" />
			<path id="Layer" class="s12" d="m174.92 31.35c0.98 0.43 0.76 1.08 0.44 4.11c-0.34 3.15-1.45 8.87-3.58 14.49c-2.14 5.63-5.32 11.16-8.08 15.25c-2.77 4.09-5.13 6.75-6.94 8.29c-1.81 1.53-3.06 1.94-3.88 2.08c-0.81 0.14-1.18 0-1.39-0.41c-0.22-0.41-0.3-1.1-0.11-1.91c0.18-0.82 0.62-1.78 1.87-3c1.26-1.23 3.33-2.73 6.2-4.13c2.88-1.4 6.57-2.69 9.6-3.58c3.02-0.88 5.38-1.36 7.45-1.73c2.07-0.38 3.84-0.65 5.57-0.79c1.73-0.14 3.43-0.14 5.09 0c1.66 0.14 3.29 0.41 4.69 0.75c1.4 0.34 2.58 0.75 3.62 1.4c1.03 0.65 1.91 1.53 2.35 2.52c0.45 0.99 0.45 2.08 0.08 2.87c-0.37 0.78-1.11 1.26-1.95 1.53c-0.85 0.27-1.81 0.34-2.95 0c-1.15-0.34-2.48-1.09-3.88-2.08c-1.4-0.99-2.88-2.21-4.8-4.12c-1.91-1.92-4.28-4.51-6.27-7.03c-1.99-2.53-3.62-4.98-4.72-7.06c-1.11-2.08-1.7-3.78-2.18-5.49c-0.48-1.71-0.85-3.41-0.99-4.94c-0.15-1.54-0.08-2.91 0.07-3.99c0.14-1.1 0.37-1.91 0.74-2.46c0.36-0.54 0.88-0.82 1.25-0.95c0.37-0.14 0.59-0.14 0.81-0.17c0.22-0.04 0.44-0.11 0.78 0c0.32 0.09 0.75 0.35 1.11 0.55v0h0z" />
		</g>
		<g id="Layer">
			<path id="Layer" fill-rule="evenodd" class="s13" d="m309.15 69.22c0 5.15-9.61 9.33-21.46 9.33c-11.85 0-21.46-4.18-21.46-9.33c0-5.15 9.61-9.33 21.46-9.33c11.85 0 21.46 4.18 21.46 9.33z" />
			<path id="Layer" fill-rule="evenodd" class="s14" d="m260.86 28.06c0 0 6.07 12.51 20.26 12.16c29.74-0.75 34.95-16.26 35.7-18.5c0.75-2.24 1.89-1.9 2.15 0.17c9.7 88.04-67.31 50.26-70.05 35.27c15.29-4.48 11.56-13.06 11.56-13.06l0.37-16.04h0.01z" />
			<path id="Layer" fill-rule="evenodd" class="s15" d="m272.18 65.2c14.22 2.84 21.46 0.21 25.7-3.07c-1.12-1.45-3.03-3.03-3.03-3.03c0 0 4.97 1.38 6.71 3.64c1.74 2.25 0.65 3.64 0.19 6.52c-1.02-2.53-2.91-3.48-3.17-4.48c-3.81 5.27-13.31 5.05-26.41 0.43v0l0.01-0.01z" />
			<path id="Layer" class="s16" d="m310.65 65.32c-5.45 7.95-13.36 10.7-22.03 10.55c-8.66-0.15-17.95-3.41-25.13-7.52c-3.59-2.06-6.6-4.34-8.77-6.46c-1.59-1.56-2.11-2.66-2.64-3.76c5.94-2.34 9.4-5.42 10.49-8.44c1.01-2.8 0.42-4.85 0.13-5.74l0.26-9.43c3.53 3.83 9.29 8.14 18.2 7.91c15.26-0.38 24.58-4.57 30.14-9.17c2.7-2.24 4.49-4.57 5.67-6.53c1.44 18.85-1.31 31.25-6.33 38.58l0.01 0.01z" />
			<path id="Layer" fill-rule="evenodd" class="s17" d="m276.34 46.9c0 3.07-1.63 5.9-4.29 7.43c-2.66 1.53-5.93 1.53-8.58 0c-2.66-1.53-4.29-4.37-4.29-7.43c0-3.07 1.63-5.9 4.29-7.43c2.65-1.53 5.93-1.53 8.58 0c2.66 1.53 4.29 4.37 4.29 7.43z" />
			<path id="Layer" fill-rule="evenodd" class="s18" d="m259.25 50.13c4.16 5.76 4.21 12.83 0.12 15.78c-4.09 2.95-10.78 0.67-14.94-5.09c-4.16-5.76-4.21-12.83-0.12-15.78c4.09-2.95 10.78-0.67 14.94 5.09v0z" />
			<path id="Layer" fill-rule="evenodd" class="s19" d="m273.9 48.17c0 1.48-0.79 2.84-2.07 3.58c-1.28 0.74-2.85 0.74-4.13 0c-1.28-0.74-2.07-2.1-2.07-3.58c0-1.48 0.79-2.84 2.07-3.58c1.28-0.74 2.85-0.74 4.13 0c1.28 0.74 2.07 2.1 2.07 3.58z" />
			<path id="Layer" class="s20" d="m250.54 46.44c2.22 0.71 4.64 2.34 6.51 4.84c1.87 2.5 2.76 5.28 2.82 7.61c0.05 2.33-0.66 4.12-2.01 5.13c-1.35 1.01-3.19 1.21-5.39 0.5c-2.21-0.71-4.67-2.39-6.55-4.9c-1.88-2.51-2.79-5.35-2.86-7.66c-0.06-2.32 0.65-4.03 1.99-5.04c1.35-1.01 3.27-1.19 5.49-0.48h0z" />
			<path id="Layer" fill-rule="evenodd" class="s10" d="m251.28 50.81c0 1.6-0.71 3.08-1.86 3.88c-1.15 0.8-2.58 0.8-3.73 0c-1.15-0.8-1.87-2.28-1.86-3.88c0-1.6 0.71-3.08 1.86-3.88c1.15-0.8 2.58-0.8 3.73 0c1.15 0.8 1.87 2.28 1.86 3.88z" />
			<path id="Layer" fill-rule="evenodd" class="s10" d="m271.04 46.26c0 1.58-1.28 2.86-2.86 2.86c-1.58 0-2.86-1.28-2.86-2.86c0-1.58 1.28-2.86 2.86-2.86c1.58 0 2.86 1.28 2.86 2.86z" />
			<path id="Layer" fill-rule="evenodd" class="s21" d="m295.55 47.83c0 3.6-1.92 6.93-5.04 8.72c-3.12 1.8-6.96 1.8-10.07 0c-3.12-1.8-5.04-5.13-5.04-8.72c0-3.6 1.92-6.93 5.04-8.72c3.12-1.8 6.96-1.8 10.07 0c3.12 1.8 5.04 5.13 5.04 8.72z" />
			<path id="Layer" fill-rule="evenodd" class="s19" d="m292.69 49.32c0 1.73-0.92 3.33-2.42 4.2c-1.5 0.87-3.35 0.87-4.85 0c-1.5-0.87-2.42-2.47-2.42-4.2c0-1.73 0.92-3.33 2.42-4.2c1.5-0.87 3.35-0.87 4.85 0c1.5 0.87 2.42 2.47 2.42 4.2z" />
			<path id="Layer" fill-rule="evenodd" class="s10" d="m289.33 47.08c0 1.85-1.5 3.36-3.36 3.36c-1.85 0-3.36-1.5-3.36-3.36c0-1.85 1.5-3.36 3.36-3.36c1.85 0 3.36 1.5 3.36 3.36z" />
			<g id="Layer">
				<path id="Layer" fill-rule="evenodd" class="s22" d="m296 67.19c-1.61-1.36-0.88-3.44 1.45-2.36c0 0 13.41 3.87 20.68 9.19l-1.95 3.89c-8.71-2.5-20.17-10.72-20.17-10.72h-0.01z" />
				<path id="Layer" fill-rule="evenodd" class="s23" d="m325.5 81.5l-9.09-3.32l-0.48-0.46l-0.88 0.33c-0.45-1.54 1.26-4.29 2.44-5.03l0.28 0.9l0.65 0.06l8.12 5.2l-1.05 2.32v0h0.01z" />
				<path id="Layer" class="s24" d="m320.24 77.11l5.39 2.31" />
				<path id="Layer" fill-rule="evenodd" class="s25" d="m327.06 86.77c-5.51-2.11-5.14-9.75 0.2-10.24c6.62-0.61 7.51 6.22 10.04 14.81c0 0-4.93-2.54-10.24-4.57v0z" />
				<path id="Layer" fill-rule="evenodd" class="s26" d="m327.65 77.23c0.76-0.22 1.58-0.03 2.16 0.52c0.57 0.55 0.81 1.36 0.63 2.13c-0.19 0.77-0.77 1.38-1.53 1.61c-0.76 0.22-1.58 0.03-2.16-0.52c-0.57-0.55-0.81-1.36-0.63-2.13c0.19-0.77 0.77-1.38 1.53-1.61z" />
				<path id="Layer" fill-rule="evenodd" class="s10" d="m317.98 74.07c0.51-0.15 1.07-0.02 1.46 0.35c0.39 0.37 0.55 0.92 0.42 1.44c-0.13 0.52-0.52 0.93-1.03 1.08c-0.51 0.15-1.07 0.02-1.46-0.35c-0.39-0.37-0.55-0.92-0.42-1.44c0.13-0.52 0.52-0.93 1.03-1.08z" />
				<path id="Layer" fill-rule="evenodd" class="s27" d="m334.12 86.2c0 0-0.82-3.08-2.64-4.69c-0.64-0.57 0.17-1.4 0.77-0.67c1.31 1.59 1.87 5.36 1.87 5.36z" />
			</g>
			<path id="Layer" fill-rule="evenodd" class="s28" d="m289.33 65.88c4.43-0.84 8.58-3.68 8.58-3.68l1.12 1.96c-3.19 0.15-4.11 2.4-4.32 3.57c-1.19 0.43-4.04 1.3-7.2 1l1.82-2.84v-0.01z" />
		</g>
		<g id="Layer">
			<path id="Layer" class="s29" d="m432.71 14c3.88 0 7.03 3.15 7.03 7.03v2.34h-43.47v-2.34c0-3.88 3.15-7.03 7.03-7.03h29.41v0h0z" />
			<path id="Layer" class="s30" d="m468 31.66v42.55c0 4.58-3.71 8.29-8.29 8.29h-83.41c-4.58 0-8.29-3.71-8.29-8.29v-42.55c0-4.58 3.71-8.29 8.29-8.29h83.41c4.58 0 8.29 3.71 8.29 8.29v0z" />
			<path id="Layer" class="s31" d="m468 73.14h-100v-40.4h100v40.4z" />
			<path id="Layer" class="s32" d="m445.07 52.94c0 14.95-12.12 27.06-27.06 27.06c-14.95 0-27.06-12.12-27.06-27.06c0-14.95 12.12-27.06 27.06-27.06c14.95 0 27.06 12.12 27.06 27.06z" />
			<path id="Layer" class="s33" d="m437.17 52.94c0 10.58-8.58 19.17-19.17 19.17c-10.58 0-19.17-8.58-19.17-19.17c0-10.58 8.58-19.17 19.17-19.17c10.58 0 19.17 8.58 19.17 19.17z" />
			<path id="Layer" class="s34" d="m415.79 44.95c0 3.14-2.55 5.68-5.68 5.68c-3.14 0-5.68-2.55-5.68-5.68c0-3.14 2.54-5.68 5.68-5.68c3.14 0 5.68 2.55 5.68 5.68z" />
			<path id="Layer" class="s35" d="m464.15 36.88c0 1.32-1.07 2.38-2.38 2.38c-1.32 0-2.38-1.07-2.38-2.38c0-1.32 1.07-2.38 2.38-2.38c1.32 0 2.38 1.07 2.38 2.38z" />
		</g>
		<g id="Layer">
			<path id="Layer" class="s2" d="m509.17 18.76h81.4c5.62 0 10.17 4.49 10.17 10.04v50.17c0 5.54-4.56 10.04-10.17 10.04h-81.4c-5.62 0-10.17-4.49-10.17-10.04v-50.17c0-5.54 4.56-10.04 10.17-10.04v0z" />
			<path id="Layer" fill-rule="evenodd" class="s10" d="m511.94 37.18c-1.31 0-2.31-0.28-3.01-0.84c-0.7-0.56-1.17-1.46-1.4-2.71l2.62-0.38c0.11 0.64 0.31 1.12 0.6 1.43c0.29 0.31 0.7 0.46 1.21 0.46c0.53 0 0.92-0.17 1.19-0.52c0.27-0.35 0.41-0.84 0.41-1.49v-6.52h-2.51v-2.04h5.14v8.5c0 1.29-0.37 2.3-1.12 3.03c-0.75 0.73-1.79 1.09-3.13 1.09l0-0.01zm17.09-8.67c0 0.8-0.18 1.51-0.55 2.14c-0.37 0.63-0.9 1.11-1.59 1.46c-0.69 0.34-1.5 0.51-2.45 0.51h-3.13v4.38h-2.64v-12.43h5.66c1.51 0 2.67 0.34 3.48 1.03c0.82 0.68 1.23 1.65 1.23 2.9l-0.01 0.01zm-5-1.92h-2.73v4.03h2.8c0.73 0 1.29-0.18 1.68-0.53c0.39-0.36 0.59-0.87 0.59-1.54c0-1.31-0.78-1.96-2.34-1.96zm12.83 8.55c0.69 0 1.35-0.1 1.99-0.29c0.65-0.2 1.14-0.45 1.49-0.76v-1.72h-3.08v-1.92h5.49v4.57c-0.67 0.67-1.54 1.2-2.61 1.59c-1.07 0.38-2.19 0.57-3.36 0.57c-2.05 0-3.63-0.56-4.73-1.68c-1.1-1.13-1.65-2.72-1.65-4.77c0-2.05 0.55-3.61 1.66-4.7c1.11-1.09 2.7-1.64 4.78-1.64c2.96 0 4.84 1.08 5.64 3.24l-2.43 0.72c-0.26-0.63-0.67-1.1-1.23-1.43c-0.56-0.33-1.22-0.49-1.98-0.49c-1.24 0-2.18 0.37-2.83 1.11c-0.65 0.74-0.97 1.8-0.97 3.18c0 1.41 0.33 2.49 0.99 3.26c0.67 0.77 1.6 1.15 2.81 1.15l0.02 0.01zm28.8-6.63c0 0.8-0.18 1.51-0.55 2.14c-0.37 0.63-0.9 1.11-1.59 1.46c-0.69 0.34-1.5 0.51-2.45 0.51h-3.13v4.38h-2.64v-12.43h5.66c1.51 0 2.67 0.34 3.48 1.03c0.82 0.68 1.23 1.65 1.23 2.9l-0.01 0.01zm-5-1.92h-2.73v4.03h2.8c0.73 0 1.29-0.18 1.68-0.53c0.39-0.36 0.59-0.87 0.59-1.54c0-1.31-0.78-1.96-2.34-1.96zm17.61 10.41h-3.09l-5.49-9.57c0.11 0.93 0.16 1.67 0.16 2.24v7.33h-2.34v-12.43h3.01l5.57 9.65c-0.11-0.89-0.16-1.7-0.16-2.43v-7.23h2.34v12.44zm8.44-1.86c0.69 0 1.35-0.1 1.99-0.29c0.65-0.2 1.14-0.45 1.49-0.76v-1.72h-3.08v-1.92h5.49v4.57c-0.67 0.67-1.54 1.2-2.61 1.59c-1.07 0.38-2.19 0.57-3.36 0.57c-2.05 0-3.63-0.56-4.73-1.68c-1.1-1.13-1.65-2.72-1.65-4.77c0-2.05 0.55-3.61 1.66-4.7c1.11-1.09 2.7-1.64 4.78-1.64c2.96 0 4.84 1.08 5.64 3.24l-2.43 0.72c-0.26-0.63-0.67-1.1-1.23-1.43c-0.56-0.33-1.22-0.49-1.98-0.49c-1.24 0-2.18 0.37-2.83 1.11c-0.65 0.74-0.97 1.8-0.97 3.18c0 1.41 0.33 2.49 0.99 3.26c0.67 0.77 1.6 1.15 2.81 1.15l0.02 0.01zm-71.23 19c0.69 0 1.35-0.1 1.99-0.29c0.65-0.2 1.14-0.45 1.49-0.76v-1.72h-3.08v-1.92h5.49v4.57c-0.67 0.67-1.54 1.2-2.61 1.59c-1.07 0.38-2.19 0.57-3.36 0.57c-2.05 0-3.63-0.56-4.73-1.68c-1.1-1.13-1.65-2.72-1.65-4.77c0-2.05 0.55-3.61 1.66-4.7c1.11-1.09 2.7-1.64 4.78-1.64c2.96 0 4.84 1.08 5.64 3.24l-2.43 0.72c-0.26-0.63-0.67-1.1-1.23-1.43c-0.56-0.33-1.22-0.49-1.98-0.49c-1.24 0-2.18 0.37-2.83 1.11c-0.65 0.74-0.97 1.8-0.97 3.18c0 1.41 0.33 2.49 0.99 3.26c0.67 0.77 1.6 1.15 2.81 1.15l0.02 0.01zm10.9 1.86h-2.64v-12.43h2.64v12.43zm11.74-10.42h-6.65v3.85h6.45v2.01h-6.45v4.56h-2.64v-12.43h9.29v2.01zm22.85 0v10.42h-2.64v-10.42h-4.07v-2.01h10.78v2.01h-4.07zm8.14 10.42h-2.64v-12.43h2.64v12.43zm11.74-10.42h-6.65v3.85h6.45v2.01h-6.45v4.56h-2.64v-12.43h9.29v2.01zm11.19 0h-6.65v3.85h6.45v2.01h-6.45v4.56h-2.64v-12.43h9.29v2.01zm-73.81 25.84c0 1.22-0.46 2.15-1.38 2.8c-0.91 0.64-2.25 0.96-4.02 0.96c-1.61 0-2.88-0.28-3.8-0.85c-0.92-0.57-1.51-1.42-1.77-2.57l2.55-0.41c0.17 0.66 0.51 1.14 1.01 1.44c0.5 0.29 1.19 0.44 2.08 0.44c1.84 0 2.76-0.55 2.76-1.66c0-0.35-0.11-0.64-0.32-0.87c-0.21-0.23-0.5-0.42-0.89-0.57c-0.38-0.15-1.12-0.34-2.21-0.56c-0.94-0.22-1.6-0.39-1.97-0.52c-0.37-0.13-0.7-0.29-1-0.47c-0.3-0.18-0.55-0.4-0.76-0.65c-0.21-0.25-0.37-0.55-0.49-0.89c-0.11-0.34-0.17-0.73-0.17-1.17c0-1.13 0.43-1.99 1.28-2.58c0.86-0.6 2.11-0.9 3.74-0.9c1.56 0 2.73 0.24 3.51 0.72c0.79 0.48 1.29 1.28 1.52 2.39l-2.56 0.34c-0.13-0.53-0.4-0.94-0.8-1.21c-0.4-0.27-0.98-0.41-1.73-0.41c-1.6 0-2.4 0.49-2.4 1.48c0 0.33 0.08 0.59 0.25 0.79c0.17 0.21 0.43 0.38 0.76 0.53c0.33 0.14 1.01 0.32 2.03 0.54c1.21 0.25 2.08 0.49 2.59 0.71c0.53 0.21 0.94 0.46 1.24 0.75c0.31 0.28 0.54 0.62 0.7 1.02c0.16 0.39 0.24 0.85 0.24 1.37l0.01 0.01zm8.18 3.58h-2.67l-4.66-12.43h2.75l2.59 7.98c0.16 0.52 0.38 1.3 0.66 2.35l0.19-0.76l0.46-1.59l2.58-7.98h2.73l-4.63 12.43zm11.96-1.86c0.69 0 1.35-0.1 1.99-0.29c0.65-0.2 1.14-0.45 1.49-0.76v-1.72h-3.08v-1.92h5.49v4.57c-0.67 0.67-1.54 1.2-2.61 1.59c-1.07 0.38-2.19 0.57-3.36 0.57c-2.05 0-3.63-0.56-4.73-1.68c-1.1-1.13-1.65-2.72-1.65-4.77c0-2.05 0.55-3.61 1.66-4.7c1.11-1.09 2.7-1.64 4.78-1.64c2.96 0 4.84 1.08 5.64 3.24l-2.43 0.72c-0.26-0.63-0.67-1.1-1.23-1.43c-0.56-0.33-1.22-0.49-1.98-0.49c-1.24 0-2.18 0.37-2.83 1.11c-0.65 0.74-0.97 1.8-0.97 3.18c0 1.41 0.33 2.49 0.99 3.26c0.67 0.77 1.6 1.15 2.81 1.15l0.02 0.01zm28.9-1.09c-0.51 0.95-1.23 1.68-2.16 2.19c-0.93 0.51-2 0.76-3.2 0.76h-5.1v-12.43h4.56c2.12 0 3.76 0.53 4.93 1.59c1.16 1.05 1.74 2.56 1.74 4.53c0 1.28-0.26 2.4-0.77 3.36zm-2.95-6.41c-0.71-0.71-1.71-1.06-3.01-1.06h-1.87v8.41h2.24c1.13 0 2.03-0.39 2.7-1.16c0.67-0.77 1-1.82 1-3.14c0-1.33-0.35-2.35-1.06-3.05zm16.17 6.41c-0.51 0.95-1.23 1.68-2.16 2.19c-0.93 0.51-2 0.76-3.2 0.76h-5.1v-12.43h4.56c2.12 0 3.76 0.53 4.93 1.59c1.16 1.05 1.74 2.56 1.74 4.53c0 1.28-0.26 2.4-0.77 3.36zm-2.95-6.41c-0.71-0.71-1.71-1.06-3.01-1.06h-1.87v8.41h2.24c1.13 0 2.03-0.39 2.7-1.16c0.67-0.77 1-1.82 1-3.14c0-1.33-0.35-2.35-1.06-3.05zm15.99 5.78c0 1.22-0.46 2.15-1.38 2.8c-0.91 0.64-2.25 0.96-4.02 0.96c-1.61 0-2.88-0.28-3.8-0.85c-0.92-0.57-1.51-1.42-1.77-2.57l2.55-0.41c0.17 0.66 0.51 1.14 1.01 1.44c0.5 0.29 1.19 0.44 2.08 0.44c1.84 0 2.76-0.55 2.76-1.66c0-0.35-0.11-0.64-0.32-0.87c-0.21-0.23-0.5-0.42-0.89-0.57c-0.38-0.15-1.12-0.34-2.21-0.56c-0.94-0.22-1.6-0.39-1.97-0.52c-0.37-0.13-0.7-0.29-1-0.47c-0.3-0.18-0.55-0.4-0.76-0.65c-0.21-0.25-0.37-0.55-0.49-0.89c-0.11-0.34-0.17-0.73-0.17-1.17c0-1.13 0.43-1.99 1.28-2.58c0.86-0.6 2.11-0.9 3.74-0.9c1.56 0 2.73 0.24 3.51 0.72c0.79 0.48 1.29 1.28 1.52 2.39l-2.56 0.34c-0.13-0.53-0.4-0.94-0.8-1.21c-0.4-0.27-0.98-0.41-1.73-0.41c-1.6 0-2.4 0.49-2.4 1.48c0 0.33 0.08 0.59 0.25 0.79c0.17 0.21 0.43 0.38 0.76 0.53c0.33 0.14 1.01 0.32 2.03 0.54c1.21 0.25 2.08 0.49 2.59 0.71c0.53 0.21 0.94 0.46 1.24 0.75c0.31 0.28 0.54 0.62 0.7 1.02c0.16 0.39 0.24 0.85 0.24 1.37l0.01 0.01zm-46.85 12.65h-2.58v-2.69h2.58v2.69zm5.09 0h-2.58v-2.69h2.58v2.69zm5.09 0h-2.58v-2.69h2.58v2.69z" />
		</g>
		<path id="Layer" fill-rule="evenodd" class="s10" d="m-334.65 130h-3.24v-3.63h3.24v3.63zm24.04-16.32c0 2.21-0.73 3.96-2.18 5.27c-1.44 1.3-3.4 1.95-5.89 1.95h-6.89v9.1h-3.18v-23.34h9.86c2.63 0 4.66 0.61 6.11 1.84c1.44 1.23 2.16 2.96 2.16 5.19l0.01-0.01zm-3.19 0.03c0-3.01-1.82-4.52-5.46-4.52h-6.3v9.21h6.44c3.55 0 5.32-1.56 5.32-4.69zm26.15 9.84c0 2.15-0.85 3.82-2.55 5c-1.69 1.18-4.07 1.77-7.14 1.77c-5.71 0-9.02-1.98-9.93-5.93l3.08-0.61c0.35 1.4 1.11 2.43 2.26 3.1c1.15 0.65 2.72 0.98 4.71 0.98c2.05 0 3.63-0.35 4.74-1.04c1.12-0.71 1.68-1.74 1.68-3.1c0-0.76-0.18-1.38-0.53-1.86c-0.35-0.47-0.83-0.87-1.46-1.18c-0.63-0.31-1.39-0.57-2.26-0.78c-0.87-0.21-1.84-0.43-2.91-0.68c-1.85-0.41-3.26-0.82-4.23-1.23c-0.95-0.41-1.71-0.86-2.26-1.36c-0.55-0.51-0.98-1.1-1.28-1.77c-0.29-0.67-0.43-1.45-0.43-2.32c0-2 0.77-3.54 2.3-4.62c1.54-1.08 3.74-1.62 6.6-1.62c2.66 0 4.7 0.41 6.11 1.23c1.41 0.81 2.39 2.19 2.96 4.14l-3.13 0.55c-0.35-1.24-1-2.13-1.96-2.68c-0.97-0.56-2.3-0.84-4.01-0.84c-1.87 0-3.3 0.31-4.29 0.93c-0.99 0.62-1.48 1.54-1.48 2.77c0 0.72 0.19 1.32 0.57 1.79c0.39 0.47 0.94 0.86 1.66 1.19c0.72 0.32 2.16 0.72 4.31 1.19c0.72 0.17 1.44 0.34 2.15 0.51c0.72 0.17 1.41 0.37 2.06 0.61c0.65 0.23 1.26 0.51 1.83 0.83c0.58 0.32 1.08 0.71 1.5 1.18c0.42 0.47 0.75 1.01 0.98 1.64c0.25 0.63 0.37 1.37 0.37 2.22l-0.02-0.01zm24.54-5.47c0 2.41-0.47 4.52-1.41 6.33c-0.94 1.8-2.28 3.18-4.01 4.14c-1.73 0.96-3.73 1.44-5.99 1.44h-8.77v-23.34h7.75c3.97 0 7.03 0.99 9.18 2.98c2.16 1.98 3.24 4.8 3.24 8.45h0.01zm-3.19 0c0-2.89-0.8-5.1-2.4-6.61c-1.59-1.53-3.89-2.29-6.9-2.29h-4.51v18.27h5.22c1.72 0 3.23-0.38 4.52-1.13c1.31-0.75 2.31-1.84 3.01-3.25c0.7-1.41 1.05-3.08 1.05-5l0.01 0.01zm67.97 11.91h-3.24v-3.63h3.24v3.63zm22.53 0l-2.68-6.83h-10.68l-2.69 6.83h-3.29l9.57-23.34h3.61l9.42 23.34h-3.26zm-7.57-19.58l-0.45-1.38l-0.15 0.46c-0.28 0.92-0.69 2.1-1.23 3.53l-2.99 7.67h8.77l-3.01-7.7c-0.31-0.76-0.62-1.62-0.93-2.58h-0.01zm17.2 19.58h-3.18v-23.34h3.18v23.34zm75.76 0h-3.24v-3.63h3.24v3.63zm25.12 0h-3.51l-7.04-10.21l-7.19 10.21h-3.51l8.92-12.13l-8.23-11.22h3.51l6.52 9.16l6.34-9.16h3.51l-8.02 11.1l8.7 12.24l0 0.01zm23.69-11.91c0 2.41-0.47 4.52-1.41 6.33c-0.94 1.8-2.28 3.18-4.01 4.14c-1.73 0.96-3.73 1.44-5.99 1.44h-8.77v-23.34h7.75c3.97 0 7.03 0.99 9.18 2.98c2.16 1.98 3.24 4.8 3.24 8.45h0.01zm-3.19 0c0-2.89-0.8-5.1-2.4-6.61c-1.59-1.53-3.89-2.29-6.9-2.29h-4.51v18.27h5.22c1.72 0 3.23-0.38 4.52-1.13c1.31-0.75 2.31-1.84 3.01-3.25c0.7-1.41 1.05-3.08 1.05-5l0.01 0.01zm49.04 11.91h-3.24v-3.63h3.24v3.63zm18.91-4.95c0 1.69-0.64 2.99-1.93 3.91c-1.27 0.92-3.06 1.38-5.37 1.38c-2.24 0-3.97-0.36-5.19-1.09c-1.21-0.74-1.99-1.89-2.36-3.45l2.65-0.51c0.25 0.96 0.78 1.67 1.58 2.12c0.8 0.44 1.91 0.66 3.33 0.66c1.52 0 2.63-0.23 3.33-0.7c0.71-0.47 1.06-1.16 1.06-2.09c0-0.71-0.24-1.28-0.73-1.72c-0.49-0.44-1.27-0.8-2.36-1.09l-2.15-0.56c-1.72-0.44-2.95-0.87-3.68-1.29c-0.72-0.43-1.29-0.95-1.7-1.56c-0.41-0.61-0.62-1.35-0.62-2.24c0-1.63 0.58-2.88 1.75-3.73c1.17-0.86 2.88-1.29 5.12-1.29c1.99 0 3.56 0.35 4.72 1.04c1.17 0.69 1.92 1.81 2.23 3.35l-2.69 0.33c-0.17-0.79-0.62-1.4-1.35-1.82c-0.72-0.43-1.69-0.65-2.91-0.65c-1.35 0-2.35 0.2-2.99 0.61c-0.64 0.41-0.96 1.03-0.96 1.86c0 0.51 0.13 0.93 0.4 1.26c0.27 0.33 0.66 0.61 1.18 0.84c0.52 0.23 1.62 0.55 3.29 0.96c1.59 0.4 2.73 0.77 3.43 1.11c0.7 0.33 1.25 0.7 1.65 1.11c0.41 0.41 0.73 0.88 0.95 1.42c0.22 0.53 0.33 1.14 0.33 1.82l-0.01 0.01zm18.32 4.95h-3.51l-6.09-8.18l-2.2 1.81v6.38h-2.99v-24.59h2.99v15.36l7.9-8.7h3.51l-7.3 7.7l7.69 10.22zm4.54-8.33c0 2.05 0.43 3.64 1.28 4.75c0.85 1.11 2.1 1.67 3.74 1.67c1.3 0 2.34-0.26 3.11-0.78c0.79-0.52 1.32-1.18 1.6-1.97l2.63 0.75c-1.07 2.83-3.52 4.24-7.34 4.24c-2.66 0-4.69-0.79-6.09-2.37c-1.39-1.58-2.08-3.93-2.08-7.04c0-2.96 0.69-5.23 2.08-6.81c1.4-1.58 3.39-2.37 5.97-2.37c5.29 0 7.94 3.18 7.94 9.53v0.4h-12.84zm9.75-2.29c-0.17-1.89-0.65-3.26-1.45-4.13c-0.8-0.87-1.95-1.31-3.44-1.31c-1.45 0-2.61 0.49-3.46 1.46c-0.84 0.96-1.29 2.29-1.36 3.98h9.71zm13.83 8.28c0 0-0.01 0-0.01 0l0 0l0.01 0zm-0.01 2.2c-0.99 0.27-2 0.4-3.03 0.4c-2.39 0-3.59-1.35-3.59-4.06v-11.96h-2.08v-2.17h2.2l0.88-4.01h2v4.01h3.33v2.17h-3.33v11.32c0 0.86 0.14 1.47 0.42 1.82c0.29 0.34 0.78 0.51 1.48 0.51c0.4 0 0.97-0.08 1.72-0.23v2.2zm4.82-8.91c0 2.39 0.38 4.15 1.13 5.3c0.75 1.15 1.89 1.72 3.41 1.72c1.07 0 1.95-0.29 2.66-0.86c0.72-0.57 1.16-1.46 1.33-2.65l3.03 0.2c-0.23 1.72-0.97 3.1-2.21 4.13c-1.24 1.03-2.81 1.54-4.72 1.54c-2.52 0-4.44-0.79-5.77-2.37c-1.32-1.59-1.98-3.91-1.98-6.94c0-3.01 0.67-5.31 2-6.89c1.33-1.59 3.24-2.39 5.72-2.39c1.84 0 3.36 0.47 4.57 1.42c1.22 0.95 1.99 2.26 2.3 3.93l-3.08 0.23c-0.15-0.99-0.55-1.78-1.18-2.37c-0.63-0.59-1.53-0.88-2.69-0.88c-1.59 0-2.73 0.52-3.44 1.57c-0.71 1.05-1.06 2.81-1.06 5.3l-0.02 0.01zm17.73-5.82c0.64-1.17 1.41-2.03 2.31-2.57c0.91-0.55 2.05-0.83 3.44-0.83c1.95 0 3.39 0.49 4.31 1.46c0.93 0.96 1.4 2.58 1.4 4.85v11.95h-3.01v-11.37c0-1.26-0.12-2.19-0.35-2.8c-0.23-0.62-0.62-1.07-1.15-1.36c-0.53-0.29-1.27-0.43-2.21-0.43c-1.41 0-2.54 0.49-3.39 1.46c-0.84 0.97-1.26 2.28-1.26 3.93v10.57h-2.99v-24.59h2.99v6.4c0 0.67-0.02 1.37-0.07 2.09c-0.03 0.72-0.06 1.13-0.07 1.24h0.05zm48.43 14.86h-3.24v-3.63h3.24v3.63zm24.04-16.32c0 2.21-0.73 3.96-2.18 5.27c-1.44 1.3-3.4 1.95-5.89 1.95h-6.89v9.1h-3.18v-23.34h9.86c2.63 0 4.66 0.61 6.11 1.84c1.44 1.23 2.16 2.96 2.16 5.19l0.01-0.01zm-8.65-4.49h-6.3v9.21h6.44c3.55 0 5.32-1.56 5.32-4.69c0-3.01-1.82-4.52-5.46-4.52zm33.42 8.89c0 2.41-0.47 4.52-1.41 6.33c-0.94 1.8-2.28 3.18-4.01 4.14c-1.73 0.96-3.73 1.44-5.99 1.44h-8.77v-23.34h7.75c3.97 0 7.03 0.99 9.18 2.98c2.16 1.98 3.24 4.8 3.24 8.45h0.01zm-3.19 0c0-2.89-0.8-5.1-2.4-6.61c-1.59-1.53-3.89-2.29-6.9-2.29h-4.51v18.27h5.22c1.72 0 3.23-0.38 4.52-1.13c1.31-0.75 2.31-1.84 3.01-3.25c0.7-1.41 1.05-3.08 1.05-5l0.01 0.01zm10.8-8.85v8.68h13.08v2.62h-13.08v9.46h-3.18v-23.34h16.65v2.58h-13.47zm59.05 20.76h-3.24v-3.63h3.24v3.63zm25.12 0h-3.51l-7.04-10.21l-7.19 10.21h-3.51l8.92-12.13l-8.23-11.22h3.51l6.52 9.16l6.34-9.16h3.51l-8.02 11.1l8.7 12.24v0.01zm13.88-21.11c0 0 0 0 0 0c0 0 0 0 0.01 0h-0.01zm-6.05 2.5c-1.44 1.66-2.16 3.94-2.16 6.83c0 2.86 0.75 5.16 2.25 6.91c1.51 1.73 3.54 2.6 6.11 2.6c3.28 0 5.75-1.62 7.4-4.85l2.6 1.29c-0.97 2.01-2.33 3.54-4.08 4.59c-1.74 1.05-3.76 1.57-6.07 1.57c-2.36 0-4.41-0.49-6.14-1.46c-1.72-0.98-3.03-2.38-3.94-4.19c-0.9-1.82-1.35-3.97-1.35-6.46c0-3.72 1.01-6.64 3.03-8.75c2.02-2.11 4.81-3.16 8.38-3.16c2.49 0 4.58 0.49 6.25 1.46c1.67 0.97 2.9 2.41 3.69 4.32l-3.01 0.99c-0.55-1.36-1.42-2.4-2.63-3.11c-1.2-0.72-2.62-1.08-4.28-1.08c-2.59 0-4.61 0.83-6.05 2.5zm36.94-2.15h-13.47v8.68h13.08v2.62h-13.08v9.46h-3.18v-23.34h16.65v2.58zm81.18 20.76h-3.66l-6.09-9.69h-7.3v9.69h-3.18v-23.34h11.03c2.64 0 4.68 0.59 6.11 1.77c1.44 1.17 2.16 2.81 2.16 4.9c0 1.73-0.51 3.19-1.53 4.37c-1.01 1.18-2.4 1.93-4.19 2.24l6.65 10.06zm-5.53-19.73c-0.92-0.72-2.25-1.08-3.99-1.08h-7.54v8.62h7.67c1.67 0 2.97-0.39 3.88-1.16c0.92-0.79 1.38-1.88 1.38-3.28c0-1.36-0.47-2.39-1.4-3.1zm26.52 19.73l-2.68-6.83h-10.68l-2.69 6.83h-3.29l9.57-23.34h3.61l9.42 23.34h-3.26zm-7.57-19.58l-0.45-1.38l-0.15 0.46c-0.28 0.92-0.69 2.1-1.23 3.53l-2.99 7.67h8.77l-3.01-7.7c-0.31-0.76-0.62-1.62-0.93-2.58h-0.01zm41.66-3.76l-6.9 23.34h-3.79l-4.06-14.83c-0.27-0.93-0.65-2.59-1.16-4.99c-0.29 1.28-0.53 2.35-0.73 3.21c-0.2 0.86-1.71 6.39-4.54 16.6h-3.79l-6.9-23.34h3.31l4.21 14.83c0.5 1.85 0.96 3.76 1.38 5.73c0.27-1.21 0.57-2.54 0.91-3.98c0.35-1.43 1.89-6.96 4.62-16.58h3.04l4.08 14.53c0.62 2.37 1.11 4.38 1.46 6.03l0.15-0.58c0.3-1.27 0.54-2.31 0.73-3.1c0.19-0.81 1.74-6.43 4.67-16.88h3.31l0 0.01zm74.45 23.34l-2.68-6.83h-10.68l-2.69 6.83h-3.29l9.57-23.34h3.61l9.42 23.34h-3.26zm-7.57-19.58l-0.45-1.38l-0.15 0.46c-0.28 0.92-0.69 2.1-1.23 3.53l-2.99 7.67h8.77l-3.01-7.7c-0.31-0.76-0.62-1.62-0.93-2.58h-0.01zm28.88 19.58l-12.54-19.88l0.08 1.61l0.08 2.77v15.51h-2.83v-23.34h3.69l12.68 20.01c-0.13-2.17-0.2-3.74-0.2-4.71v-15.31h2.86v23.34l-3.82 0zm28.58-23.34l-9.05 13.67v9.68h-3.16v-9.68l-9.02-13.67h3.49l7.14 11.12l7.1-11.12l3.5 0z" />
	</g>
</svg>